<?xml version="1.0" encoding="utf-8"?>
<!-- Generator: Adobe Illustrator 23.0.3, SVG Export Plug-In . SVG Version: 6.00 Build 0)  -->
<svg version="1.1" id="Layer_1" xmlns="http://www.w3.org/2000/svg" xmlns:xlink="http://www.w3.org/1999/xlink" x="0px" y="0px"
	 viewBox="0 0 500 500" style="enable-background:new 0 0 500 500;" xml:space="preserve">
<path d="M450,162.5c0,62.1-50.4,112.5-112.5,112.5c-18.1,0-35-4.7-50.2-12.3l-177,177c-13.8,13.8-36.2,13.8-50,0h0
	c-13.8-13.8-13.8-36.2,0-50l177-177c-7.6-15.2-12.3-32.1-12.3-50.2C225,100.4,275.4,50,337.5,50c11.3,0,22,2.2,32.2,5.3l-54.2,54.2
	c-20.7,20.7-20.7,54.3,0,75c20.7,20.7,54.3,20.7,75,0l54.2-54.2C447.8,140.5,450,151.2,450,162.5z"/>
</svg>
