<?xml version="1.0" encoding="utf-8"?>
<!-- Generator: Adobe Illustrator 22.0.0, SVG Export Plug-In . SVG Version: 6.00 Build 0)  -->
<svg version="1.1" id="Layer_1" xmlns="http://www.w3.org/2000/svg" xmlns:xlink="http://www.w3.org/1999/xlink" x="0px" y="0px"
	 viewBox="0 0 500 500" style="enable-background:new 0 0 500 500;" xml:space="preserve">
<path d="M450,237.5v25l-50,25V400c0,27.6-22.4,50-50,50h-50v-50h25c13.8,0,25-11.2,25-25V125c0-13.8-11.2-25-25-25h-25V50h50
	c27.6,0,50,22.4,50,50v112.5L450,237.5z M100,100v112.5l-50,25v25l50,25V400c0,27.6,22.4,50,50,50h50v-50h-25c-13.8,0-25-11.2-25-25
	V125c0-13.8,11.2-25,25-25h25V50h-50C122.4,50,100,72.4,100,100z"/>
</svg>
