<svg id="Layer_1" data-name="Layer 1" xmlns="http://www.w3.org/2000/svg" viewBox="0 0 300 100"><defs><style>.cls-1{fill:#fff;}</style></defs><title>Main-horizontal-negative</title><path class="cls-1" d="M116,44.29a7.8,7.8,0,0,1-3.28,2.81,11.3,11.3,0,0,1-4.93,1,10,10,0,0,1-5.24-1.34,8.66,8.66,0,0,1-3.38-3.83A13.42,13.42,0,0,1,98,37.08v-1.4a13.23,13.23,0,0,1,1.22-5.85A8.92,8.92,0,0,1,102.67,26a9.78,9.78,0,0,1,5.18-1.35,11,11,0,0,1,5,1A7.79,7.79,0,0,1,116,28.53a9.49,9.49,0,0,1,1.37,4.22h-5.06a4.66,4.66,0,0,0-1.17-3.08,4.62,4.62,0,0,0-3.31-1,4,4,0,0,0-3.53,1.69,9.68,9.68,0,0,0-1.14,5.3v1.43a14,14,0,0,0,.46,4,4.31,4.31,0,0,0,1.49,2.28,4.45,4.45,0,0,0,2.7.75,4.77,4.77,0,0,0,3.26-1,4.25,4.25,0,0,0,1.22-3h5.06A8.5,8.5,0,0,1,116,44.29Zm14.85-13.73a5,5,0,0,1,.68.14l-.07,4.58a12.08,12.08,0,0,0-1.73-.13c-1.74,0-2.88.56-3.41,1.68v11h-4.88v-17h4.59l.15,2.06a4.74,4.74,0,0,1,1.64-1.76,4.16,4.16,0,0,1,2.24-.61A7.45,7.45,0,0,1,130.89,30.56Zm8.77-5.88a2.42,2.42,0,0,1,0,3.5,2.8,2.8,0,0,1-2,.68,2.77,2.77,0,0,1-2-.68,2.39,2.39,0,0,1,0-3.5,2.82,2.82,0,0,1,2-.68A2.85,2.85,0,0,1,139.66,24.68Zm-4.41,23.11v-17h4.9v17Zm18.89-3.69v3.56a8.8,8.8,0,0,1-2.88.44q-5.14,0-5.14-5.08V34.27h-2.47V30.82h2.47v-4.2H151v4.2H154v3.45H151v8.2a1.81,1.81,0,0,0,.41,1.37,2,2,0,0,0,1.37.37A6.73,6.73,0,0,0,154.14,44.1Zm8.29-19.42a2.42,2.42,0,0,1,0,3.5,2.85,2.85,0,0,1-2,.68,2.79,2.79,0,0,1-2-.68,2.42,2.42,0,0,1,0-3.5,2.83,2.83,0,0,1,2-.68A2.89,2.89,0,0,1,162.43,24.68ZM158,47.79v-17h4.9v17Zm23.3-5.95a5.57,5.57,0,0,1-1,3.23,6.45,6.45,0,0,1-2.63,2.23,9.21,9.21,0,0,1-8.14-.31,7,7,0,0,1-2.74-3.06,10.27,10.27,0,0,1-.91-4.42V39.1a10.27,10.27,0,0,1,.91-4.42,7,7,0,0,1,2.73-3.06A8.38,8.38,0,0,1,174,30.51a8.6,8.6,0,0,1,3.81.81,6.11,6.11,0,0,1,2.58,2.32,6.74,6.74,0,0,1,.92,3.56h-4.58a3,3,0,0,0-.76-2.07,2.65,2.65,0,0,0-2.07-.81,2.49,2.49,0,0,0-2.44,1.29,7.75,7.75,0,0,0-.66,3.49v.41a7.87,7.87,0,0,0,.65,3.51A2.54,2.54,0,0,0,174,44.29a3,3,0,0,0,2-.66,2.3,2.3,0,0,0,.77-1.79ZM199,45.94a6.37,6.37,0,0,0,.53,1.58v.27h-4.9a5,5,0,0,1-.46-1.52,5.68,5.68,0,0,1-4.39,1.83,6.74,6.74,0,0,1-3-.66,5.33,5.33,0,0,1-2.15-1.82,4.57,4.57,0,0,1-.78-2.62,4.76,4.76,0,0,1,2-4.13A10.53,10.53,0,0,1,192,37.42h2v-1a2.55,2.55,0,0,0-.62-1.83,2.42,2.42,0,0,0-1.84-.65,2.69,2.69,0,0,0-1.74.51,1.78,1.78,0,0,0-.62,1.45h-4.88a4.5,4.5,0,0,1,.93-2.76,6.16,6.16,0,0,1,2.63-2,10.07,10.07,0,0,1,3.94-.72,9.38,9.38,0,0,1,3.67.67,5.55,5.55,0,0,1,2.51,2,5.78,5.78,0,0,1,.9,3.29v7.1A12.34,12.34,0,0,0,199,45.94Zm-6.24-1.88A2.92,2.92,0,0,0,194,43V40.14h-1.86a3.78,3.78,0,0,0-2.53.71,2.3,2.3,0,0,0-.83,1.86,1.62,1.62,0,0,0,.59,1.3,2.35,2.35,0,0,0,1.57.5A3.82,3.82,0,0,0,192.77,44.06Zm9.78,3.73V23.7h4.9V47.79ZM120.22,59a6.11,6.11,0,0,1,1.34,4.35V73.57h-1.78V63.37a4.39,4.39,0,0,0-1-3.28,4,4,0,0,0-2.87-1,4.83,4.83,0,0,0-2.48.61,4.68,4.68,0,0,0-1.63,1.55,4.39,4.39,0,0,0-.67,1.92V73.57h-1.79V63.22a3.48,3.48,0,0,0-3.92-4.08,4.32,4.32,0,0,0-3,1,5.83,5.83,0,0,0-1.66,2.64V73.57H98.94V57.94h1.73l0,2.52a6,6,0,0,1,2.16-2.07,6.24,6.24,0,0,1,3.06-.74,5.89,5.89,0,0,1,3.07.73,4.08,4.08,0,0,1,1.76,2.29,6,6,0,0,1,2.23-2.2,6.42,6.42,0,0,1,3.28-.82A5.26,5.26,0,0,1,120.22,59Zm17.6,13a5.07,5.07,0,0,0,.36,1.38v.19h-1.9a7.79,7.79,0,0,1-.36-2.19,6.64,6.64,0,0,1-2.27,1.79,7.08,7.08,0,0,1-3.18.68,6.16,6.16,0,0,1-2.73-.57,4.36,4.36,0,0,1-1.83-1.58,4.39,4.39,0,0,1,.24-4.92,5.6,5.6,0,0,1,2.55-1.72,11.78,11.78,0,0,1,3.91-.59h3.29V62.7a3.37,3.37,0,0,0-1.08-2.65,4.46,4.46,0,0,0-3.07-1,5.46,5.46,0,0,0-2.22.43A3.76,3.76,0,0,0,128,60.67a2.54,2.54,0,0,0-.55,1.59l-1.79,0a3.66,3.66,0,0,1,.79-2.23,5.49,5.49,0,0,1,2.2-1.71,7.49,7.49,0,0,1,3.19-.65,7.71,7.71,0,0,1,3.07.57A4.51,4.51,0,0,1,137,59.93a5.06,5.06,0,0,1,.74,2.8v7.56A10.85,10.85,0,0,0,137.82,72Zm-3.91-.54a5,5,0,0,0,2-2.21V65.79h-3.05a10.24,10.24,0,0,0-3.12.42,4.41,4.41,0,0,0-2,1.2,2.71,2.71,0,0,0-.69,1.86,2.78,2.78,0,0,0,.45,1.55,3.09,3.09,0,0,0,1.26,1.1,4.26,4.26,0,0,0,1.91.4A6,6,0,0,0,133.91,71.46ZM153.3,59a6.16,6.16,0,0,1,1.31,4.36V73.57h-1.78V63.38a4.57,4.57,0,0,0-1-3.28,3.86,3.86,0,0,0-2.83-1,4.4,4.4,0,0,0-3,1.06,6.18,6.18,0,0,0-1.82,2.63V73.57h-1.79V57.94h1.72l.06,2.64a6.17,6.17,0,0,1,2.22-2.15,6,6,0,0,1,3-.78A5.05,5.05,0,0,1,153.3,59Zm18-1.08V73.57h-1.71l0-2q-1.6,2.26-5.13,2.26a5.21,5.21,0,0,1-3.9-1.42,6.19,6.19,0,0,1-1.4-4.5v-10H161V68a4.67,4.67,0,0,0,1,3.37,3.65,3.65,0,0,0,2.7,1,5.62,5.62,0,0,0,3.23-.83,4.32,4.32,0,0,0,1.66-2.26V57.94Zm8.53-4.46a3.55,3.55,0,0,0-.82,2.51v1.95h3.85v1.41h-3.85V73.57h-1.78V59.35h-2.68V57.94h2.68V56a5,5,0,0,1,1.26-3.64,4.7,4.7,0,0,1,3.5-1.27,7.27,7.27,0,0,1,1.9.24l-.13,1.44a7.58,7.58,0,0,0-1.64-.17A3,3,0,0,0,179.87,53.48ZM197.81,72a5.47,5.47,0,0,0,.36,1.38v.19h-1.9a7.79,7.79,0,0,1-.36-2.19,6.55,6.55,0,0,1-2.27,1.79,7.08,7.08,0,0,1-3.18.68,6.2,6.2,0,0,1-2.73-.57,4.33,4.33,0,0,1-1.82-1.58,4.05,4.05,0,0,1-.65-2.28,4.14,4.14,0,0,1,.88-2.64,5.65,5.65,0,0,1,2.55-1.72,11.78,11.78,0,0,1,3.91-.59h3.29V62.7a3.37,3.37,0,0,0-1.08-2.65,4.46,4.46,0,0,0-3.07-1,5.41,5.41,0,0,0-2.21.43A3.69,3.69,0,0,0,188,60.67a2.49,2.49,0,0,0-.56,1.59l-1.79,0a3.66,3.66,0,0,1,.79-2.23,5.55,5.55,0,0,1,2.2-1.71,7.49,7.49,0,0,1,3.19-.65,7.68,7.68,0,0,1,3.07.57,4.46,4.46,0,0,1,2.06,1.71,5,5,0,0,1,.74,2.8v7.56A10.85,10.85,0,0,0,197.81,72Zm-3.91-.54a5,5,0,0,0,2-2.21V65.79h-3a10.24,10.24,0,0,0-3.12.42,4.46,4.46,0,0,0-2,1.2,2.71,2.71,0,0,0-.69,1.86,2.78,2.78,0,0,0,.45,1.55,3.15,3.15,0,0,0,1.26,1.1,4.29,4.29,0,0,0,1.91.4A6,6,0,0,0,193.9,71.46Zm20.69-2.73a4.86,4.86,0,0,1-.92,2.63,5.78,5.78,0,0,1-2.24,1.84,7.12,7.12,0,0,1-3,.65,6.79,6.79,0,0,1-3.76-1,6.32,6.32,0,0,1-2.33-2.79,9.58,9.58,0,0,1-.79-4v-.6a9.65,9.65,0,0,1,.79-4,6.24,6.24,0,0,1,2.33-2.78,6.66,6.66,0,0,1,3.73-1,6.86,6.86,0,0,1,3.11.68,5.4,5.4,0,0,1,2.21,1.94,5.8,5.8,0,0,1,.89,2.92h-1.7a4.4,4.4,0,0,0-.67-2.16,4.07,4.07,0,0,0-1.61-1.41,5,5,0,0,0-2.23-.5,4.67,4.67,0,0,0-2.88.86,4.93,4.93,0,0,0-1.67,2.29,9.14,9.14,0,0,0-.53,3.18v.6a9.16,9.16,0,0,0,.52,3.19,4.83,4.83,0,0,0,1.67,2.28,4.75,4.75,0,0,0,2.92.86,5.28,5.28,0,0,0,2.14-.43,3.94,3.94,0,0,0,1.62-1.25,3.59,3.59,0,0,0,.72-2Zm10,4.89a4.24,4.24,0,0,1-.84.17,9.42,9.42,0,0,1-1.06.06,3.5,3.5,0,0,1-2.6-.93,4.48,4.48,0,0,1-.92-3.17V59.35h-3V57.94h3v-4H221v4h3.32v1.41H221v10.4a2.89,2.89,0,0,0,.56,2,2.1,2.1,0,0,0,1.53.54,9.94,9.94,0,0,0,1.46-.16Zm15.54-15.68V73.57H238.4l-.05-2q-1.59,2.26-5.12,2.26a5.24,5.24,0,0,1-3.91-1.42,6.24,6.24,0,0,1-1.4-4.5v-10h1.79V68a4.67,4.67,0,0,0,1,3.37,3.66,3.66,0,0,0,2.71,1,5.59,5.59,0,0,0,3.22-.83,4.27,4.27,0,0,0,1.66-2.26V57.94Zm12.08,1.46a8,8,0,0,0-1.19-.11,4.37,4.37,0,0,0-2.87.94,5,5,0,0,0-1.6,2.56V73.57h-1.79V57.94h1.75l0,2.45a5.15,5.15,0,0,1,1.81-2,5,5,0,0,1,2.72-.72,3.81,3.81,0,0,1,.66.05,2.47,2.47,0,0,1,.53.12ZM257,52.58a1.14,1.14,0,0,1,.34.83,1.12,1.12,0,0,1-.34.82,1.38,1.38,0,0,1-1.79,0,1.11,1.11,0,0,1-.33-.82,1.13,1.13,0,0,1,.33-.83,1.35,1.35,0,0,1,1.79,0Zm-1.79,21V57.94H257V73.57ZM272.73,59a6.11,6.11,0,0,1,1.32,4.36V73.57h-1.79V63.38a4.53,4.53,0,0,0-1-3.28,3.85,3.85,0,0,0-2.83-1,4.42,4.42,0,0,0-3,1.06,6.27,6.27,0,0,0-1.82,2.63V73.57h-1.78V57.94h1.71l.06,2.64a6.17,6.17,0,0,1,2.22-2.15,6,6,0,0,1,3-.78A5,5,0,0,1,272.73,59Zm18.2-1.08V73.29a7.21,7.21,0,0,1-.8,3.48A5.47,5.47,0,0,1,287.87,79a7.12,7.12,0,0,1-3.41.78,7.66,7.66,0,0,1-3.14-.7,6.14,6.14,0,0,1-2.48-2l1-1a6.34,6.34,0,0,0,2.07,1.7,5.44,5.44,0,0,0,2.45.55A4.67,4.67,0,0,0,287.89,77a5.13,5.13,0,0,0,1.25-3.67V71.53a5.72,5.72,0,0,1-2.09,1.72,6.68,6.68,0,0,1-2.92.6,5.49,5.49,0,0,1-3.28-1A6.41,6.41,0,0,1,278.7,70a10.67,10.67,0,0,1-.75-4.13v-.3a11,11,0,0,1,.74-4.21,6.2,6.2,0,0,1,2.15-2.78,5.65,5.65,0,0,1,3.32-1,6.35,6.35,0,0,1,2.95.65,5.51,5.51,0,0,1,2.07,1.89l.08-2.25Zm-3.56,13.64a5.13,5.13,0,0,0,1.77-2.12V62.24A5.31,5.31,0,0,0,287.45,60a4.74,4.74,0,0,0-2.95-.86,4.18,4.18,0,0,0-2.65.84,5,5,0,0,0-1.59,2.29,9.7,9.7,0,0,0-.52,3.33v.3a9.76,9.76,0,0,0,.52,3.32,4.92,4.92,0,0,0,1.58,2.29,4.14,4.14,0,0,0,2.64.83A5.12,5.12,0,0,0,287.37,71.58ZM9.07,15V85h70V15ZM73.76,79.68H14.39V20.32H73.76ZM63.54,40.54a4.66,4.66,0,0,0-4.65-4.65h-.63a4.66,4.66,0,0,0-4.65,4.65V64.11h9.93Zm-14.62,0a4.65,4.65,0,0,0-4.65-4.65h-.62A4.66,4.66,0,0,0,39,40.54V64.11h9.93ZM33.81,64.17l.74.15V35.65l-.76.19C27.64,37.31,23.5,43,23.5,50S27.74,63,33.81,64.17Z"/></svg>