<?xml version="1.0" encoding="utf-8"?>
<!-- Generator: Adobe Illustrator 23.0.3, SVG Export Plug-In . SVG Version: 6.00 Build 0)  -->
<svg version="1.1" id="Layer_1" xmlns="http://www.w3.org/2000/svg" xmlns:xlink="http://www.w3.org/1999/xlink" x="0px" y="0px"
	 viewBox="0 0 1000 1000" style="enable-background:new 0 0 1000 1000;" xml:space="preserve">
<path d="M900,340c0,132.5-107.4,240-240,240c-36.7,0-71.4-8.5-102.5-23.2L238,876.3c-31.6,31.6-82.7,31.6-114.3,0
	c-31.6-31.6-31.6-82.7,0-114.3l319.6-319.6C428.5,411.4,420,376.7,420,340c0-132.5,107.4-240,240-240c30.5,0,59.6,5.9,86.5,16.3
	L619.8,243c-37.9,37.9-37.9,99.3,0,137.1s99.3,37.9,137.1,0l126.7-126.7C894.1,280.4,900,309.5,900,340z"/>
</svg>
