<?xml version="1.0" encoding="utf-8"?>
<!-- Generator: Adobe Illustrator 22.0.0, SVG Export Plug-In . SVG Version: 6.00 Build 0)  -->
<svg version="1.1" id="Layer_1" xmlns="http://www.w3.org/2000/svg" xmlns:xlink="http://www.w3.org/1999/xlink" x="0px" y="0px"
	 viewBox="0 0 1000 1000" style="enable-background:new 0 0 1000 1000;" xml:space="preserve">
<path d="M900,477.1v45.7l-91.4,45.7v240c0,50.5-40.9,91.4-91.4,91.4H602.9v-91.4h68.6c25.2,0,45.7-20.5,45.7-45.7V237.1
	c0-25.2-20.5-45.7-45.7-45.7h-68.6V100h114.3c50.5,0,91.4,40.9,91.4,91.4v240L900,477.1z M191.4,191.4v240L100,477.1v45.7l91.4,45.7
	v240c0,50.5,40.9,91.4,91.4,91.4h114.3v-91.4h-68.6c-25.2,0-45.7-20.5-45.7-45.7V237.1c0-25.2,20.5-45.7,45.7-45.7h68.6V100H282.9
	C232.4,100,191.4,140.9,191.4,191.4z"/>
</svg>
